<svg width="2000" height="2000" xmlns="http://www.w3.org/2000/svg">
<ellipse cx="1000" cy="1000" rx="900" ry="900" fill="blue" stroke="blue" stroke-width="1" />
<ellipse cx="1000" cy="1000" rx="15" ry="15" fill="white" stroke="white" stroke-width="1" />
<ellipse cx="1000" cy="1000" rx="900" ry="900" fill="transparent" stroke="lawngreen" stroke-width="5" />
<ellipse cx="1000" cy="1000" rx="898" ry="899" fill="transparent" stroke="lawngreen" stroke-width="5" />
<ellipse cx="1000" cy="1000" rx="894" ry="897" fill="transparent" stroke="lawngreen" stroke-width="5" />
<ellipse cx="1000" cy="1000" rx="888" ry="894" fill="transparent" stroke="lawngreen" stroke-width="5" />
<ellipse cx="1000" cy="1000" rx="880" ry="890" fill="transparent" stroke="lawngreen" stroke-width="5" />
<ellipse cx="1000" cy="1000" rx="870" ry="885" fill="transparent" stroke="lawngreen" stroke-width="5" />
<ellipse cx="1000" cy="1000" rx="858" ry="879" fill="transparent" stroke="lawngreen" stroke-width="5" />
<ellipse cx="1000" cy="1000" rx="844" ry="872" fill="transparent" stroke="lawngreen" stroke-width="5" />
<ellipse cx="1000" cy="1000" rx="828" ry="864" fill="transparent" stroke="lawngreen" stroke-width="5" />
<ellipse cx="1000" cy="1000" rx="810" ry="855" fill="transparent" stroke="lawngreen" stroke-width="5" />
<ellipse cx="1000" cy="1000" rx="790" ry="845" fill="transparent" stroke="lawngreen" stroke-width="5" />
<ellipse cx="1000" cy="1000" rx="768" ry="834" fill="transparent" stroke="lawngreen" stroke-width="5" />
<ellipse cx="1000" cy="1000" rx="744" ry="822" fill="transparent" stroke="lawngreen" stroke-width="5" />
<ellipse cx="1000" cy="1000" rx="718" ry="809" fill="transparent" stroke="lawngreen" stroke-width="5" />
<ellipse cx="1000" cy="1000" rx="690" ry="795" fill="transparent" stroke="lawngreen" stroke-width="5" />
<ellipse cx="1000" cy="1000" rx="660" ry="780" fill="transparent" stroke="lawngreen" stroke-width="5" />
<ellipse cx="1000" cy="1000" rx="628" ry="764" fill="transparent" stroke="lawngreen" stroke-width="5" />
<ellipse cx="1000" cy="1000" rx="594" ry="747" fill="transparent" stroke="lawngreen" stroke-width="5" />
<ellipse cx="1000" cy="1000" rx="558" ry="729" fill="transparent" stroke="lawngreen" stroke-width="5" />
<ellipse cx="1000" cy="1000" rx="520" ry="710" fill="transparent" stroke="lawngreen" stroke-width="5" />
<ellipse cx="1000" cy="1000" rx="480" ry="690" fill="transparent" stroke="lawngreen" stroke-width="5" />
<ellipse cx="1000" cy="1000" rx="438" ry="669" fill="transparent" stroke="lawngreen" stroke-width="5" />
<ellipse cx="1000" cy="1000" rx="394" ry="647" fill="transparent" stroke="lawngreen" stroke-width="5" />
<ellipse cx="1000" cy="1000" rx="348" ry="624" fill="transparent" stroke="lawngreen" stroke-width="5" />
<ellipse cx="1000" cy="1000" rx="300" ry="600" fill="transparent" stroke="lawngreen" stroke-width="5" />
<ellipse cx="1000" cy="1000" rx="250" ry="575" fill="transparent" stroke="lawngreen" stroke-width="5" />
<ellipse cx="1000" cy="1000" rx="198" ry="549" fill="transparent" stroke="lawngreen" stroke-width="5" />
<ellipse cx="1000" cy="1000" rx="144" ry="522" fill="transparent" stroke="lawngreen" stroke-width="5" />
<ellipse cx="1000" cy="1000" rx="88" ry="494" fill="transparent" stroke="lawngreen" stroke-width="5" />
<ellipse cx="1000" cy="1000" rx="30" ry="465" fill="transparent" stroke="lawngreen" stroke-width="5" />
<ellipse cx="1000" cy="1000" rx="-30" ry="435" fill="transparent" stroke="lawngreen" stroke-width="5" />
<ellipse cx="1000" cy="1000" rx="-92" ry="404" fill="transparent" stroke="lawngreen" stroke-width="5" />
<ellipse cx="1000" cy="1000" rx="-156" ry="372" fill="transparent" stroke="lawngreen" stroke-width="5" />
<ellipse cx="1000" cy="1000" rx="-222" ry="339" fill="transparent" stroke="lawngreen" stroke-width="5" />
<ellipse cx="1000" cy="1000" rx="-290" ry="305" fill="transparent" stroke="lawngreen" stroke-width="5" />
<ellipse cx="1000" cy="1000" rx="-360" ry="270" fill="transparent" stroke="lawngreen" stroke-width="5" />
<ellipse cx="1000" cy="1000" rx="-432" ry="234" fill="transparent" stroke="lawngreen" stroke-width="5" />
<ellipse cx="1000" cy="1000" rx="-506" ry="197" fill="transparent" stroke="lawngreen" stroke-width="5" />
<ellipse cx="1000" cy="1000" rx="-582" ry="159" fill="transparent" stroke="lawngreen" stroke-width="5" />
<ellipse cx="1000" cy="1000" rx="-660" ry="120" fill="transparent" stroke="lawngreen" stroke-width="5" />
<ellipse cx="1000" cy="1000" rx="-740" ry="80" fill="transparent" stroke="lawngreen" stroke-width="5" />
<ellipse cx="1000" cy="1000" rx="-822" ry="39" fill="transparent" stroke="lawngreen" stroke-width="5" />
<ellipse cx="1000" cy="1000" rx="-906" ry="-3" fill="transparent" stroke="lawngreen" stroke-width="5" />
<ellipse cx="1000" cy="1000" rx="-992" ry="-46" fill="transparent" stroke="lawngreen" stroke-width="5" />
<ellipse cx="1000" cy="1000" rx="-1080" ry="-90" fill="transparent" stroke="lawngreen" stroke-width="5" />
<ellipse cx="1000" cy="1000" rx="-1170" ry="-135" fill="transparent" stroke="lawngreen" stroke-width="5" />
<ellipse cx="1000" cy="1000" rx="-1262" ry="-181" fill="transparent" stroke="lawngreen" stroke-width="5" />
<ellipse cx="1000" cy="1000" rx="-1356" ry="-228" fill="transparent" stroke="lawngreen" stroke-width="5" />
<ellipse cx="1000" cy="1000" rx="-1452" ry="-276" fill="transparent" stroke="lawngreen" stroke-width="5" />
<ellipse cx="1000" cy="1000" rx="-1550" ry="-325" fill="transparent" stroke="lawngreen" stroke-width="5" />
<ellipse cx="1000" cy="1000" rx="900" ry="900" fill="transparent" stroke="red" stroke-width="5" />
<ellipse cx="1000" cy="1000" rx="899" ry="898" fill="transparent" stroke="red" stroke-width="5" />
<ellipse cx="1000" cy="1000" rx="897" ry="894" fill="transparent" stroke="red" stroke-width="5" />
<ellipse cx="1000" cy="1000" rx="894" ry="888" fill="transparent" stroke="red" stroke-width="5" />
<ellipse cx="1000" cy="1000" rx="890" ry="880" fill="transparent" stroke="red" stroke-width="5" />
<ellipse cx="1000" cy="1000" rx="885" ry="870" fill="transparent" stroke="red" stroke-width="5" />
<ellipse cx="1000" cy="1000" rx="879" ry="858" fill="transparent" stroke="red" stroke-width="5" />
<ellipse cx="1000" cy="1000" rx="872" ry="844" fill="transparent" stroke="red" stroke-width="5" />
<ellipse cx="1000" cy="1000" rx="864" ry="828" fill="transparent" stroke="red" stroke-width="5" />
<ellipse cx="1000" cy="1000" rx="855" ry="810" fill="transparent" stroke="red" stroke-width="5" />
<ellipse cx="1000" cy="1000" rx="845" ry="790" fill="transparent" stroke="red" stroke-width="5" />
<ellipse cx="1000" cy="1000" rx="834" ry="768" fill="transparent" stroke="red" stroke-width="5" />
<ellipse cx="1000" cy="1000" rx="822" ry="744" fill="transparent" stroke="red" stroke-width="5" />
<ellipse cx="1000" cy="1000" rx="809" ry="718" fill="transparent" stroke="red" stroke-width="5" />
<ellipse cx="1000" cy="1000" rx="795" ry="690" fill="transparent" stroke="red" stroke-width="5" />
<ellipse cx="1000" cy="1000" rx="780" ry="660" fill="transparent" stroke="red" stroke-width="5" />
<ellipse cx="1000" cy="1000" rx="764" ry="628" fill="transparent" stroke="red" stroke-width="5" />
<ellipse cx="1000" cy="1000" rx="747" ry="594" fill="transparent" stroke="red" stroke-width="5" />
<ellipse cx="1000" cy="1000" rx="729" ry="558" fill="transparent" stroke="red" stroke-width="5" />
<ellipse cx="1000" cy="1000" rx="710" ry="520" fill="transparent" stroke="red" stroke-width="5" />
<ellipse cx="1000" cy="1000" rx="690" ry="480" fill="transparent" stroke="red" stroke-width="5" />
<ellipse cx="1000" cy="1000" rx="669" ry="438" fill="transparent" stroke="red" stroke-width="5" />
<ellipse cx="1000" cy="1000" rx="647" ry="394" fill="transparent" stroke="red" stroke-width="5" />
<ellipse cx="1000" cy="1000" rx="624" ry="348" fill="transparent" stroke="red" stroke-width="5" />
<ellipse cx="1000" cy="1000" rx="600" ry="300" fill="transparent" stroke="red" stroke-width="5" />
<ellipse cx="1000" cy="1000" rx="575" ry="250" fill="transparent" stroke="red" stroke-width="5" />
<ellipse cx="1000" cy="1000" rx="549" ry="198" fill="transparent" stroke="red" stroke-width="5" />
<ellipse cx="1000" cy="1000" rx="522" ry="144" fill="transparent" stroke="red" stroke-width="5" />
<ellipse cx="1000" cy="1000" rx="494" ry="88" fill="transparent" stroke="red" stroke-width="5" />
<ellipse cx="1000" cy="1000" rx="465" ry="30" fill="transparent" stroke="red" stroke-width="5" />
<ellipse cx="1000" cy="1000" rx="435" ry="-30" fill="transparent" stroke="red" stroke-width="5" />
<ellipse cx="1000" cy="1000" rx="404" ry="-92" fill="transparent" stroke="red" stroke-width="5" />
<ellipse cx="1000" cy="1000" rx="372" ry="-156" fill="transparent" stroke="red" stroke-width="5" />
<ellipse cx="1000" cy="1000" rx="339" ry="-222" fill="transparent" stroke="red" stroke-width="5" />
<ellipse cx="1000" cy="1000" rx="305" ry="-290" fill="transparent" stroke="red" stroke-width="5" />
<ellipse cx="1000" cy="1000" rx="270" ry="-360" fill="transparent" stroke="red" stroke-width="5" />
<ellipse cx="1000" cy="1000" rx="234" ry="-432" fill="transparent" stroke="red" stroke-width="5" />
<ellipse cx="1000" cy="1000" rx="197" ry="-506" fill="transparent" stroke="red" stroke-width="5" />
<ellipse cx="1000" cy="1000" rx="159" ry="-582" fill="transparent" stroke="red" stroke-width="5" />
<ellipse cx="1000" cy="1000" rx="120" ry="-660" fill="transparent" stroke="red" stroke-width="5" />
<ellipse cx="1000" cy="1000" rx="80" ry="-740" fill="transparent" stroke="red" stroke-width="5" />
<ellipse cx="1000" cy="1000" rx="39" ry="-822" fill="transparent" stroke="red" stroke-width="5" />
<ellipse cx="1000" cy="1000" rx="-3" ry="-906" fill="transparent" stroke="red" stroke-width="5" />
<ellipse cx="1000" cy="1000" rx="-46" ry="-992" fill="transparent" stroke="red" stroke-width="5" />
<ellipse cx="1000" cy="1000" rx="-90" ry="-1080" fill="transparent" stroke="red" stroke-width="5" />
<ellipse cx="1000" cy="1000" rx="-135" ry="-1170" fill="transparent" stroke="red" stroke-width="5" />
<ellipse cx="1000" cy="1000" rx="-181" ry="-1262" fill="transparent" stroke="red" stroke-width="5" />
<ellipse cx="1000" cy="1000" rx="-228" ry="-1356" fill="transparent" stroke="red" stroke-width="5" />
<ellipse cx="1000" cy="1000" rx="-276" ry="-1452" fill="transparent" stroke="red" stroke-width="5" />
<ellipse cx="1000" cy="1000" rx="-325" ry="-1550" fill="transparent" stroke="red" stroke-width="5" />
</svg>
